<svg class="iEUxuypfMrbSxWA9w3Nm" width="15" height="15" viewBox="0 0 14 14" fill="none" xmlns="http://www.w3.org/2000/svg" role="presentation"><path fill-rule="evenodd" clip-rule="evenodd" d="M7 1.55556C3.99312 1.55556 1.55556 3.99312 1.55556 7C1.55556 10.0069 3.99312 12.4444 7 12.4444C10.0069 12.4444 12.4444 10.0069 12.4444 7C12.4444 3.99312 10.0069 1.55556 7 1.55556ZM0 7C0 3.13401 3.13401 0 7 0C10.866 0 14 3.13401 14 7C14 10.866 10.866 14 7 14C3.13401 14 0 10.866 0 7Z" fill="white"></path><path fill-rule="evenodd" clip-rule="evenodd" d="M6.22222 8.55556V3.11111H7.77778V8.55556H6.22222Z" fill="white"></path><path d="M6.22222 9.33333H7.77778V10.8889H6.22222V9.33333Z" fill="white"></path></svg>